<svg xmlns="http://www.w3.org/2000/svg" xmlns:xlink="http://www.w3.org/1999/xlink" width="500" zoomAndPan="magnify" viewBox="0 0 375 374.999991" height="500" preserveAspectRatio="xMidYMid meet" version="1.0"><defs><clipPath id="cb90eda5e0"><path d="M 176 81 L 286 81 L 286 288 L 176 288 Z M 176 81 " clip-rule="nonzero"/></clipPath><clipPath id="5e5c4407ad"><path d="M 172.671875 82.988281 L 284.789062 80.515625 L 289.304688 285.339844 L 177.191406 287.8125 Z M 172.671875 82.988281 " clip-rule="nonzero"/></clipPath><clipPath id="58653e82a2"><path d="M 172.671875 82.988281 L 284.789062 80.515625 L 289.351562 287.496094 L 177.238281 289.96875 Z M 172.671875 82.988281 " clip-rule="nonzero"/></clipPath><clipPath id="1499ff3967"><path d="M 97 130 L 187.949219 130 L 187.949219 287 L 97 287 Z M 97 130 " clip-rule="nonzero"/></clipPath><clipPath id="0b684cdace"><path d="M 0.761719 0 L 374.886719 0 L 374.886719 375 L 0.761719 375 Z M 0.761719 0 " clip-rule="nonzero"/></clipPath><clipPath id="9a396a981f"><path d="M 75.761719 0 L 299.886719 0 C 341.308594 0 374.886719 33.578125 374.886719 75 L 374.886719 300 C 374.886719 341.421875 341.308594 375 299.886719 375 L 75.761719 375 C 34.339844 375 0.761719 341.421875 0.761719 300 L 0.761719 75 C 0.761719 33.578125 34.339844 0 75.761719 0 Z M 75.761719 0 " clip-rule="nonzero"/></clipPath><clipPath id="232f89ee7a"><path d="M 175 54 L 307 54 L 307 302 L 175 302 Z M 175 54 " clip-rule="nonzero"/></clipPath><clipPath id="122a6f1988"><path d="M 170.757812 56.71875 L 304.976562 53.757812 L 310.382812 298.949219 L 176.164062 301.910156 Z M 170.757812 56.71875 " clip-rule="nonzero"/></clipPath><clipPath id="2f4ba59d14"><path d="M 170.757812 56.71875 L 304.976562 53.757812 L 310.429688 301.199219 L 176.214844 304.160156 Z M 170.757812 56.71875 " clip-rule="nonzero"/></clipPath><clipPath id="18c68bcd21"><path d="M 80 113 L 189.269531 113 L 189.269531 302 L 80 302 Z M 80 113 " clip-rule="nonzero"/></clipPath></defs><g clip-path="url(#cb90eda5e0)"><g clip-path="url(#5e5c4407ad)"><g clip-path="url(#58653e82a2)"><path fill="#ffffff" d="M 255.769531 81.1875 L 214.796875 139.082031 L 241.257812 141.660156 L 237.210938 197.6875 L 211.316406 172.929688 L 176.703125 265.78125 L 186.921875 288.808594 L 219.402344 204.410156 L 251.777344 235.355469 L 259.230469 142.320312 L 285.695312 144.90625 Z M 255.769531 81.1875 " fill-opacity="1" fill-rule="nonzero"/></g></g></g><g clip-path="url(#1499ff3967)"><path fill="#ffffff" d="M 257.316406 130.503906 L 187.917969 286.484375 L 166.289062 286.484375 L 97.1875 130.503906 L 119.136719 130.503906 L 177.539062 263.351562 L 236.558594 130.503906 Z M 257.316406 130.503906 " fill-opacity="1" fill-rule="nonzero"/></g><g clip-path="url(#0b684cdace)"><g clip-path="url(#9a396a981f)"><path fill="#89180a" d="M 0.761719 0 L 374.886719 0 L 374.886719 375.585938 L 0.761719 375.585938 Z M 0.761719 0 " fill-opacity="1" fill-rule="nonzero"/></g></g><g clip-path="url(#232f89ee7a)"><g clip-path="url(#122a6f1988)"><g clip-path="url(#2f4ba59d14)"><path fill="#ffffff" d="M 270.574219 54.546875 L 221.355469 124.089844 L 253.140625 127.1875 L 248.28125 194.484375 L 217.171875 164.746094 L 175.597656 276.277344 L 187.875 303.941406 L 226.886719 202.5625 L 265.773438 239.730469 L 274.726562 127.980469 L 306.519531 131.082031 Z M 270.574219 54.546875 " fill-opacity="1" fill-rule="nonzero"/></g></g></g><g clip-path="url(#18c68bcd21)"><path fill="#ffffff" d="M 272.445312 113.800781 L 189.085938 301.152344 L 163.105469 301.152344 L 80.105469 113.800781 L 106.464844 113.800781 L 176.617188 273.367188 L 247.507812 113.800781 Z M 272.445312 113.800781 " fill-opacity="1" fill-rule="nonzero"/></g></svg>