<svg xmlns="http://www.w3.org/2000/svg" xmlns:xlink="http://www.w3.org/1999/xlink" width="500" zoomAndPan="magnify" viewBox="0 0 375 374.999991" height="500" preserveAspectRatio="xMidYMid meet" version="1.0"><defs><g/><clipPath id="a5d52fd097"><path d="M 286.511719 161.65625 L 360.011719 161.65625 L 360.011719 235.15625 L 286.511719 235.15625 Z M 286.511719 161.65625 " clip-rule="nonzero"/></clipPath><clipPath id="32d7e9c8e9"><path d="M 49 141 L 100 141 L 100 236 L 49 236 Z M 49 141 " clip-rule="nonzero"/></clipPath><clipPath id="d530ce2c5f"><path d="M 47.75 142.824219 L 98.738281 141.699219 L 100.789062 234.675781 L 49.800781 235.800781 Z M 47.75 142.824219 " clip-rule="nonzero"/></clipPath><clipPath id="2b7f9daf47"><path d="M 47.75 142.824219 L 98.738281 141.699219 L 100.804688 235.425781 L 49.816406 236.550781 Z M 47.75 142.824219 " clip-rule="nonzero"/></clipPath><clipPath id="3d30a2ef7d"><path d="M 13 164 L 54.738281 164 L 54.738281 236 L 13 236 Z M 13 164 " clip-rule="nonzero"/></clipPath></defs><g clip-path="url(#a5d52fd097)"><path fill="#000000" d="M 323.242188 161.65625 C 302.9375 161.65625 286.511719 178.101562 286.511719 198.40625 C 286.511719 218.710938 302.9375 235.15625 323.242188 235.15625 C 343.546875 235.15625 360.011719 218.710938 360.011719 198.40625 C 360.011719 178.101562 343.546875 161.65625 323.242188 161.65625 Z M 323.261719 227.808594 C 307.015625 227.808594 293.859375 214.648438 293.859375 198.40625 C 293.859375 182.164062 307.015625 169.007812 323.261719 169.007812 C 339.503906 169.007812 352.660156 182.164062 352.660156 198.40625 C 352.660156 214.648438 339.503906 227.808594 323.261719 227.808594 Z M 323.261719 227.808594 " fill-opacity="1" fill-rule="nonzero"/></g><path fill="#000000" d="M 325.097656 180.03125 L 319.585938 180.03125 L 319.585938 202.082031 L 338.859375 213.65625 L 341.636719 209.136719 L 325.097656 199.324219 Z M 325.097656 180.03125 " fill-opacity="1" fill-rule="nonzero"/><g fill="#000000" fill-opacity="1"><g transform="translate(27.444121, 235.124985)"><g/></g></g><g fill="#000000" fill-opacity="1"><g transform="translate(62.746579, 235.124985)"><g/></g></g><g fill="#000000" fill-opacity="1"><g transform="translate(98.049586, 235.124985)"><g><path d="M 39.609375 -35.578125 L 22.90625 -20.21875 L 22.90625 0 L 13.34375 0 L 13.34375 -99.984375 L 22.90625 -99.984375 L 22.90625 -32.203125 L 65.21875 -70.875 L 77.078125 -70.875 L 46.765625 -41.90625 L 79.90625 0 L 68.1875 0 Z M 39.609375 -35.578125 "/></g></g></g><g fill="#000000" fill-opacity="1"><g transform="translate(179.029645, 235.124985)"><g><path d="M 78.015625 -99.984375 L 78.015625 0 L 68.859375 0 L 68.859375 -14.015625 C 65.984375 -9.253906 62.1875 -5.613281 57.46875 -3.09375 C 52.75 -0.582031 47.425781 0.671875 41.5 0.671875 C 34.851562 0.671875 28.832031 -0.851562 23.4375 -3.90625 C 18.050781 -6.957031 13.832031 -11.222656 10.78125 -16.703125 C 7.726562 -22.179688 6.203125 -28.425781 6.203125 -35.4375 C 6.203125 -42.445312 7.726562 -48.691406 10.78125 -54.171875 C 13.832031 -59.648438 18.050781 -63.894531 23.4375 -66.90625 C 28.832031 -69.914062 34.851562 -71.421875 41.5 -71.421875 C 47.25 -71.421875 52.4375 -70.226562 57.0625 -67.84375 C 61.6875 -65.46875 65.484375 -61.988281 68.453125 -57.40625 L 68.453125 -99.984375 Z M 42.3125 -7.8125 C 47.25 -7.8125 51.71875 -8.957031 55.71875 -11.25 C 59.71875 -13.539062 62.863281 -16.796875 65.15625 -21.015625 C 67.445312 -25.242188 68.59375 -30.050781 68.59375 -35.4375 C 68.59375 -40.832031 67.445312 -45.640625 65.15625 -49.859375 C 62.863281 -54.078125 59.71875 -57.332031 55.71875 -59.625 C 51.71875 -61.914062 47.25 -63.0625 42.3125 -63.0625 C 37.28125 -63.0625 32.765625 -61.914062 28.765625 -59.625 C 24.765625 -57.332031 21.617188 -54.078125 19.328125 -49.859375 C 17.046875 -45.640625 15.90625 -40.832031 15.90625 -35.4375 C 15.90625 -30.050781 17.046875 -25.242188 19.328125 -21.015625 C 21.617188 -16.796875 24.765625 -13.539062 28.765625 -11.25 C 32.765625 -8.957031 37.28125 -7.8125 42.3125 -7.8125 Z M 42.3125 -7.8125 "/></g></g></g><g fill="#000000" fill-opacity="1"><g transform="translate(270.384848, 235.124985)"><g><path d="M 13.34375 -99.984375 L 22.90625 -99.984375 L 22.90625 0 L 13.34375 0 Z M 13.34375 -99.984375 "/></g></g></g><g clip-path="url(#32d7e9c8e9)"><g clip-path="url(#d530ce2c5f)"><g clip-path="url(#2b7f9daf47)"><path fill="#000000" d="M 85.667969 141.996094 L 66.972656 168.414062 L 79.046875 169.589844 L 77.199219 195.15625 L 65.382812 183.859375 L 49.589844 226.230469 L 54.253906 236.738281 L 69.074219 198.226562 L 83.84375 212.34375 L 87.246094 169.894531 L 99.324219 171.070312 Z M 85.667969 141.996094 " fill-opacity="1" fill-rule="nonzero"/></g></g></g><g clip-path="url(#3d30a2ef7d)"><path fill="#000000" d="M 86.140625 164.433594 L 54.507812 235.535156 L 44.648438 235.535156 L 13.148438 164.433594 L 23.152344 164.433594 L 49.777344 224.988281 L 76.679688 164.433594 Z M 86.140625 164.433594 " fill-opacity="1" fill-rule="nonzero"/></g></svg>