<svg xmlns="http://www.w3.org/2000/svg" xmlns:xlink="http://www.w3.org/1999/xlink" width="500" zoomAndPan="magnify" viewBox="0 0 375 374.999991" height="500" preserveAspectRatio="xMidYMid meet" version="1.0"><defs><clipPath id="4f39d0c602"><path d="M 165 5 L 356 5 L 356 365 L 165 365 Z M 165 5 " clip-rule="nonzero"/></clipPath><clipPath id="24924e3e62"><path d="M 158.65625 9.148438 L 353.609375 4.851562 L 361.445312 360.265625 L 166.492188 364.5625 Z M 158.65625 9.148438 " clip-rule="nonzero"/></clipPath><clipPath id="f0a6e8c658"><path d="M 158.65625 9.148438 L 353.609375 4.851562 L 361.527344 364.015625 L 166.574219 368.3125 Z M 158.65625 9.148438 " clip-rule="nonzero"/></clipPath><clipPath id="53b7830d68"><path d="M 26 92 L 183.96875 92 L 183.96875 365 L 26 365 Z M 26 92 " clip-rule="nonzero"/></clipPath></defs><g clip-path="url(#4f39d0c602)"><g clip-path="url(#24924e3e62)"><g clip-path="url(#f0a6e8c658)"><path fill="#000000" d="M 303.636719 5.988281 L 232.148438 107 L 278.320312 111.5 L 271.257812 209.25 L 226.074219 166.054688 L 165.6875 328.058594 L 183.519531 368.234375 L 240.1875 220.984375 L 296.667969 274.972656 L 309.675781 112.65625 L 355.851562 117.160156 Z M 303.636719 5.988281 " fill-opacity="1" fill-rule="nonzero"/></g></g></g><g clip-path="url(#53b7830d68)"><path fill="#000000" d="M 305.859375 92.535156 L 184.75 364.734375 L 147.003906 364.734375 L 26.414062 92.535156 L 64.710938 92.535156 L 166.636719 324.367188 L 269.628906 92.535156 Z M 305.859375 92.535156 " fill-opacity="1" fill-rule="nonzero"/></g></svg>