<svg xmlns="http://www.w3.org/2000/svg" xmlns:xlink="http://www.w3.org/1999/xlink" zoomAndPan="magnify" preserveAspectRatio="xMidYMid meet" version="1.0" viewBox="0 103 375.19 168.5"><defs><g/><clipPath id="f9efb85093"><path d="M 275.582031 184.410156 L 304.082031 184.410156 L 304.082031 212.910156 L 275.582031 212.910156 Z M 275.582031 184.410156 " clip-rule="nonzero"/></clipPath><clipPath id="9d6eb59f48"><path d="M 0 103 L 375 103 L 375 271.503906 L 0 271.503906 Z M 0 103 " clip-rule="nonzero"/></clipPath><clipPath id="8002009385"><path d="M 34.5 103.585938 L 340.5 103.585938 C 359.554688 103.585938 375 119.03125 375 138.085938 L 375 237.003906 C 375 256.054688 359.554688 271.503906 340.5 271.503906 L 34.5 271.503906 C 15.445312 271.503906 0 256.054688 0 237.003906 L 0 138.085938 C 0 119.03125 15.445312 103.585938 34.5 103.585938 Z M 34.5 103.585938 " clip-rule="nonzero"/></clipPath><clipPath id="91ba4d4397"><path d="M 66 154 L 105 154 L 105 226 L 66 226 Z M 66 154 " clip-rule="nonzero"/></clipPath><clipPath id="4deafea033"><path d="M 64.984375 154.722656 L 103.976562 153.863281 L 105.546875 225.097656 L 66.554688 225.957031 Z M 64.984375 154.722656 " clip-rule="nonzero"/></clipPath><clipPath id="e77de727c2"><path d="M 64.984375 154.722656 L 103.976562 153.863281 L 105.5625 225.847656 L 66.574219 226.707031 Z M 64.984375 154.722656 " clip-rule="nonzero"/></clipPath><clipPath id="9fe4372cb0"><path d="M 38 171 L 70.296875 171 L 70.296875 226 L 38 226 Z M 38 171 " clip-rule="nonzero"/></clipPath></defs><g clip-path="url(#f9efb85093)"><path fill="#ffffff" d="M 289.683594 171.964844 C 275.003906 171.964844 263.128906 183.851562 263.128906 198.53125 C 263.128906 213.210938 275.003906 225.097656 289.683594 225.097656 C 304.363281 225.097656 316.261719 213.210938 316.261719 198.53125 C 316.261719 183.851562 304.363281 171.964844 289.683594 171.964844 Z M 289.695312 219.785156 C 277.953125 219.785156 268.445312 210.273438 268.445312 198.53125 C 268.445312 186.789062 277.953125 177.277344 289.695312 177.277344 C 301.4375 177.277344 310.949219 186.789062 310.949219 198.53125 C 310.949219 210.273438 301.4375 219.785156 289.695312 219.785156 Z M 289.695312 219.785156 " fill-opacity="1" fill-rule="nonzero"/></g><path fill="#ffffff" d="M 291.023438 185.25 L 287.039062 185.25 L 287.039062 201.1875 L 300.972656 209.554688 L 302.980469 206.289062 L 291.023438 199.195312 Z M 291.023438 185.25 " fill-opacity="1" fill-rule="nonzero"/><g clip-path="url(#9d6eb59f48)"><g clip-path="url(#8002009385)"><path fill="#89180a" d="M 0 103.585938 L 375.191406 103.585938 L 375.191406 271.503906 L 0 271.503906 Z M 0 103.585938 " fill-opacity="1" fill-rule="nonzero"/></g></g><g clip-path="url(#91ba4d4397)"><g clip-path="url(#4deafea033)"><g clip-path="url(#e77de727c2)"><path fill="#ffffff" d="M 93.882812 154.097656 L 79.632812 174.230469 L 88.835938 175.128906 L 87.429688 194.613281 L 78.425781 186.003906 L 66.386719 218.292969 L 69.941406 226.304688 L 81.238281 196.953125 L 92.496094 207.714844 L 95.085938 175.359375 L 104.292969 176.257812 Z M 93.882812 154.097656 " fill-opacity="1" fill-rule="nonzero"/></g></g></g><g clip-path="url(#9fe4372cb0)"><path fill="#ffffff" d="M 94.421875 171.25 L 70.289062 225.492188 L 62.765625 225.492188 L 38.734375 171.25 L 46.367188 171.25 L 66.675781 217.449219 L 87.203125 171.25 Z M 94.421875 171.25 " fill-opacity="1" fill-rule="nonzero"/></g><g fill="#ffffff" fill-opacity="1"><g transform="translate(104.859825, 225.145527)"><g><path d="M 31.59375 -28.375 L 18.265625 -16.125 L 18.265625 0 L 10.640625 0 L 10.640625 -79.734375 L 18.265625 -79.734375 L 18.265625 -25.6875 L 52 -56.515625 L 61.46875 -56.515625 L 37.28125 -33.421875 L 63.71875 0 L 54.375 0 Z M 31.59375 -28.375 "/></g></g></g><g fill="#ffffff" fill-opacity="1"><g transform="translate(169.438158, 225.145527)"><g><path d="M 8.921875 -75.21875 L 43.09375 -75.21875 C 51.257812 -75.21875 58.472656 -73.660156 64.734375 -70.546875 C 71.003906 -67.429688 75.875 -63.039062 79.34375 -57.375 C 82.820312 -51.71875 84.5625 -45.128906 84.5625 -37.609375 C 84.5625 -30.085938 82.820312 -23.492188 79.34375 -17.828125 C 75.875 -12.171875 71.003906 -7.785156 64.734375 -4.671875 C 58.472656 -1.554688 51.257812 0 43.09375 0 L 8.921875 0 Z M 42.234375 -14.296875 C 49.753906 -14.296875 55.75 -16.390625 60.21875 -20.578125 C 64.695312 -24.765625 66.9375 -30.441406 66.9375 -37.609375 C 66.9375 -44.773438 64.695312 -50.453125 60.21875 -54.640625 C 55.75 -58.828125 49.753906 -60.921875 42.234375 -60.921875 L 26.328125 -60.921875 L 26.328125 -14.296875 Z M 42.234375 -14.296875 "/></g></g></g><g fill="#ffffff" fill-opacity="1"><g transform="translate(258.191938, 225.145527)"><g><path d="M 64.15625 -39.109375 C 68.445312 -37.753906 71.8125 -35.484375 74.25 -32.296875 C 76.6875 -29.109375 77.90625 -25.1875 77.90625 -20.53125 C 77.90625 -13.9375 75.34375 -8.863281 70.21875 -5.3125 C 65.09375 -1.769531 57.625 0 47.8125 0 L 8.921875 0 L 8.921875 -75.21875 L 45.671875 -75.21875 C 54.835938 -75.21875 61.875 -73.460938 66.78125 -69.953125 C 71.6875 -66.441406 74.140625 -61.675781 74.140625 -55.65625 C 74.140625 -52.007812 73.257812 -48.75 71.5 -45.875 C 69.75 -43.007812 67.300781 -40.753906 64.15625 -39.109375 Z M 26.21875 -62.109375 L 26.21875 -44.375 L 43.515625 -44.375 C 47.816406 -44.375 51.078125 -45.125 53.296875 -46.625 C 55.515625 -48.132812 56.625 -50.359375 56.625 -53.296875 C 56.625 -56.234375 55.515625 -58.4375 53.296875 -59.90625 C 51.078125 -61.375 47.816406 -62.109375 43.515625 -62.109375 Z M 46.53125 -13.109375 C 51.113281 -13.109375 54.566406 -13.859375 56.890625 -15.359375 C 59.222656 -16.867188 60.390625 -19.195312 60.390625 -22.34375 C 60.390625 -28.582031 55.769531 -31.703125 46.53125 -31.703125 L 26.21875 -31.703125 L 26.21875 -13.109375 Z M 46.53125 -13.109375 "/></g></g></g></svg>