<svg xmlns="http://www.w3.org/2000/svg" xmlns:xlink="http://www.w3.org/1999/xlink" width="500" zoomAndPan="magnify" viewBox="0 0 375 374.999991" height="500" preserveAspectRatio="xMidYMid meet" version="1.0"><defs><g/><clipPath id="c5bcceda76"><path d="M 174 33 L 338 33 L 338 344 L 174 344 Z M 174 33 " clip-rule="nonzero"/></clipPath><clipPath id="80c98db7da"><path d="M 168.242188 36.300781 L 334.703125 32.632812 L 341.480469 340.054688 L 175.023438 343.726562 Z M 168.242188 36.300781 " clip-rule="nonzero"/></clipPath><clipPath id="9d45a2b9b8"><path d="M 168.242188 36.300781 L 334.703125 32.632812 L 341.480469 340.054688 L 175.023438 343.726562 Z M 168.242188 36.300781 " clip-rule="nonzero"/></clipPath><clipPath id="6585aef01b"><path d="M 52 44 L 187 44 L 187 344 L 52 344 Z M 52 44 " clip-rule="nonzero"/></clipPath><clipPath id="66bf5b0fbd"><path d="M 75.113281 44.558594 L 186.105469 335.34375 L 163.683594 343.902344 L 52.691406 53.117188 Z M 75.113281 44.558594 " clip-rule="nonzero"/></clipPath><clipPath id="01a5c82787"><path d="M 75.113281 44.558594 L 186.105469 335.34375 L 163.683594 343.902344 L 52.691406 53.117188 Z M 75.113281 44.558594 " clip-rule="nonzero"/></clipPath></defs><g fill="#ffffff" fill-opacity="1"><g transform="translate(102.845211, 343.697598)"><g><path d="M 90.609375 0 L 61.53125 0 L 7.015625 -143.1875 L 29.859375 -143.1875 L 74.90625 -24.140625 L 77.890625 -24.140625 L 122.546875 -143.1875 L 144.875 -143.1875 Z M 90.609375 0 "/></g></g></g><g clip-path="url(#c5bcceda76)"><g clip-path="url(#80c98db7da)"><g clip-path="url(#9d45a2b9b8)"><path fill="#ffffff" d="M 292.351562 33.601562 L 231.15625 120.070312 L 270.675781 123.921875 L 264.632812 207.597656 L 225.957031 170.621094 L 174.261719 309.300781 L 189.527344 343.691406 L 238.035156 217.640625 L 286.386719 263.859375 L 297.519531 124.910156 L 337.046875 128.765625 Z M 292.351562 33.601562 " fill-opacity="1" fill-rule="nonzero"/></g></g></g><g clip-path="url(#6585aef01b)"><g clip-path="url(#66bf5b0fbd)"><g clip-path="url(#01a5c82787)"><path fill="#ffffff" d="M 75.027344 44.589844 L 186.066406 335.488281 L 163.6875 344.027344 L 52.652344 53.132812 Z M 75.027344 44.589844 " fill-opacity="1" fill-rule="nonzero"/></g></g></g></svg>