<svg xmlns="http://www.w3.org/2000/svg" xmlns:xlink="http://www.w3.org/1999/xlink" zoomAndPan="magnify" preserveAspectRatio="xMidYMid meet" version="1.0" viewBox="6 142 87.22 95.48"><defs><clipPath id="d2eb26be9c"><path d="M 42 142 L 92 142 L 92 237 L 42 237 Z M 42 142 " clip-rule="nonzero"/></clipPath><clipPath id="25bb20e562"><path d="M 40.164062 143.75 L 91.152344 142.625 L 93.203125 235.601562 L 42.214844 236.726562 Z M 40.164062 143.75 " clip-rule="nonzero"/></clipPath><clipPath id="aba00a2180"><path d="M 40.164062 143.75 L 91.152344 142.625 L 93.21875 236.351562 L 42.230469 237.476562 Z M 40.164062 143.75 " clip-rule="nonzero"/></clipPath><clipPath id="d4b839c868"><path d="M 6 165 L 47.25 165 L 47.25 237 L 6 237 Z M 6 165 " clip-rule="nonzero"/></clipPath></defs><g clip-path="url(#d2eb26be9c)"><g clip-path="url(#25bb20e562)"><g clip-path="url(#aba00a2180)"><path fill="#000000" d="M 77.984375 142.925781 L 59.335938 169.277344 L 71.378906 170.449219 L 69.539062 195.949219 L 57.75 184.683594 L 42 226.945312 L 46.648438 237.425781 L 61.433594 199.011719 L 76.167969 213.097656 L 79.5625 170.75 L 91.605469 171.925781 Z M 77.984375 142.925781 " fill-opacity="1" fill-rule="nonzero"/></g></g></g><g clip-path="url(#d4b839c868)"><path fill="#000000" d="M 79.03125 165.484375 L 47.394531 236.582031 L 37.535156 236.582031 L 6.039062 165.484375 L 16.042969 165.484375 L 42.664062 226.035156 L 69.566406 165.484375 Z M 79.03125 165.484375 " fill-opacity="1" fill-rule="nonzero"/></g></svg>