<svg xmlns="http://www.w3.org/2000/svg" xmlns:xlink="http://www.w3.org/1999/xlink" width="500" zoomAndPan="magnify" viewBox="0 0 375 374.999991" height="500" preserveAspectRatio="xMidYMid meet" version="1.0"><defs><g/><clipPath id="c68402f2bc"><path d="M 174 33 L 338 33 L 338 344 L 174 344 Z M 174 33 " clip-rule="nonzero"/></clipPath><clipPath id="82baaf5a33"><path d="M 168.242188 36.300781 L 334.703125 32.632812 L 341.480469 340.054688 L 175.023438 343.726562 Z M 168.242188 36.300781 " clip-rule="nonzero"/></clipPath><clipPath id="2d2566a624"><path d="M 168.242188 36.300781 L 334.703125 32.632812 L 341.480469 340.054688 L 175.023438 343.726562 Z M 168.242188 36.300781 " clip-rule="nonzero"/></clipPath><clipPath id="236b5377dc"><path d="M 52 44 L 187 44 L 187 344 L 52 344 Z M 52 44 " clip-rule="nonzero"/></clipPath><clipPath id="9ab89428af"><path d="M 75.113281 44.558594 L 186.105469 335.34375 L 163.683594 343.902344 L 52.691406 53.117188 Z M 75.113281 44.558594 " clip-rule="nonzero"/></clipPath><clipPath id="9956d18a7f"><path d="M 75.113281 44.558594 L 186.105469 335.34375 L 163.683594 343.902344 L 52.691406 53.117188 Z M 75.113281 44.558594 " clip-rule="nonzero"/></clipPath><clipPath id="a776de1dd8"><path d="M 75.113281 44.558594 L 186.105469 335.34375 L 163.683594 343.902344 L 52.691406 53.117188 Z M 75.113281 44.558594 " clip-rule="nonzero"/></clipPath></defs><g fill="#000000" fill-opacity="1"><g transform="translate(102.845211, 343.697598)"><g><path d="M 90.609375 0 L 61.53125 0 L 7.015625 -143.1875 L 29.859375 -143.1875 L 74.90625 -24.140625 L 77.890625 -24.140625 L 122.546875 -143.1875 L 144.875 -143.1875 Z M 90.609375 0 "/></g></g></g><g clip-path="url(#c68402f2bc)"><g clip-path="url(#82baaf5a33)"><g clip-path="url(#2d2566a624)"><path fill="#000000" d="M 292.351562 33.601562 L 231.15625 120.070312 L 270.675781 123.921875 L 264.632812 207.597656 L 225.957031 170.621094 L 174.261719 309.300781 L 189.527344 343.691406 L 238.035156 217.640625 L 286.386719 263.859375 L 297.519531 124.910156 L 337.046875 128.765625 Z M 292.351562 33.601562 " fill-opacity="1" fill-rule="nonzero"/></g></g></g><g clip-path="url(#236b5377dc)"><g clip-path="url(#9ab89428af)"><g clip-path="url(#9956d18a7f)"><g clip-path="url(#a776de1dd8)"><path fill="#000000" d="M 75.03125 44.589844 L 186.023438 335.375 L 163.765625 343.871094 L 52.773438 53.085938 Z M 75.03125 44.589844 " fill-opacity="1" fill-rule="nonzero"/></g></g></g></g></svg>