<svg xmlns="http://www.w3.org/2000/svg" xmlns:xlink="http://www.w3.org/1999/xlink" width="500" zoomAndPan="magnify" viewBox="0 0 375 187.499995" height="250" preserveAspectRatio="xMidYMid meet" version="1.0"><defs><g/><clipPath id="e5b554ffc0"><path d="M 285.394531 66.898438 L 361.578125 66.898438 L 361.578125 143.082031 L 285.394531 143.082031 Z M 285.394531 66.898438 " clip-rule="nonzero"/></clipPath><clipPath id="74cb4a56de"><path d="M 132 60 L 170 60 L 170 97 L 132 97 Z M 132 60 " clip-rule="nonzero"/></clipPath><clipPath id="ca7a43662c"><path d="M 140.433594 100.15625 L 128.875 87.804688 L 164.148438 54.808594 L 175.703125 67.160156 Z M 140.433594 100.15625 " clip-rule="nonzero"/></clipPath><clipPath id="79696be047"><path d="M 169.925781 60.984375 L 168.6875 73.722656 L 165.40625 70.214844 L 137.148438 96.648438 L 132.160156 91.3125 L 160.414062 64.878906 L 157.132812 61.371094 Z M 169.925781 60.984375 " clip-rule="nonzero"/></clipPath></defs><g clip-path="url(#e5b554ffc0)"><path fill="#000000" d="M 323.46875 66.898438 C 302.421875 66.898438 285.394531 83.945312 285.394531 104.988281 C 285.394531 126.035156 302.421875 143.082031 323.46875 143.082031 C 344.515625 143.082031 361.578125 126.035156 361.578125 104.988281 C 361.578125 83.945312 344.515625 66.898438 323.46875 66.898438 Z M 323.488281 135.464844 C 306.652344 135.464844 293.015625 121.828125 293.015625 104.988281 C 293.015625 88.152344 306.652344 74.515625 323.488281 74.515625 C 340.324219 74.515625 353.960938 88.152344 353.960938 104.988281 C 353.960938 121.828125 340.324219 135.464844 323.488281 135.464844 Z M 323.488281 135.464844 " fill-opacity="1" fill-rule="nonzero"/></g><path fill="#000000" d="M 325.390625 85.945312 L 319.679688 85.945312 L 319.679688 108.800781 L 339.65625 120.796875 L 342.535156 116.113281 L 325.390625 105.941406 Z M 325.390625 85.945312 " fill-opacity="1" fill-rule="nonzero"/><g fill="#000000" fill-opacity="1"><g transform="translate(13.290009, 142.189076)"><g><path d="M 75.546875 -73.453125 L 42.875 0 L 32.671875 0 L 0.140625 -73.453125 L 10.46875 -73.453125 L 37.984375 -10.890625 L 65.765625 -73.453125 Z M 75.546875 -73.453125 "/></g></g></g><g fill="#000000" fill-opacity="1"><g transform="translate(88.966463, 142.189076)"><g><path d="M 41.046875 -36.859375 L 23.734375 -20.953125 L 23.734375 0 L 13.828125 0 L 13.828125 -103.609375 L 23.734375 -103.609375 L 23.734375 -33.375 L 67.59375 -73.453125 L 79.875 -73.453125 L 48.453125 -43.421875 L 82.8125 0 L 70.65625 0 Z M 41.046875 -36.859375 "/></g></g></g><g fill="#000000" fill-opacity="1"><g transform="translate(172.880783, 142.189076)"><g><path d="M 80.859375 -103.609375 L 80.859375 0 L 71.359375 0 L 71.359375 -14.515625 C 68.378906 -9.585938 64.441406 -5.816406 59.546875 -3.203125 C 54.660156 -0.597656 49.148438 0.703125 43.015625 0.703125 C 36.117188 0.703125 29.878906 -0.878906 24.296875 -4.046875 C 18.710938 -7.210938 14.335938 -11.632812 11.171875 -17.3125 C 8.003906 -22.988281 6.421875 -29.457031 6.421875 -36.71875 C 6.421875 -43.988281 8.003906 -50.460938 11.171875 -56.140625 C 14.335938 -61.816406 18.710938 -66.210938 24.296875 -69.328125 C 29.878906 -72.453125 36.117188 -74.015625 43.015625 -74.015625 C 48.972656 -74.015625 54.347656 -72.78125 59.140625 -70.3125 C 63.929688 -67.84375 67.863281 -64.234375 70.9375 -59.484375 L 70.9375 -103.609375 Z M 43.84375 -8.09375 C 48.96875 -8.09375 53.597656 -9.28125 57.734375 -11.65625 C 61.878906 -14.03125 65.140625 -17.40625 67.515625 -21.78125 C 69.890625 -26.15625 71.078125 -31.132812 71.078125 -36.71875 C 71.078125 -42.3125 69.890625 -47.296875 67.515625 -51.671875 C 65.140625 -56.046875 61.878906 -59.421875 57.734375 -61.796875 C 53.597656 -64.171875 48.96875 -65.359375 43.84375 -65.359375 C 38.632812 -65.359375 33.957031 -64.171875 29.8125 -61.796875 C 25.664062 -59.421875 22.40625 -56.046875 20.03125 -51.671875 C 17.664062 -47.296875 16.484375 -42.3125 16.484375 -36.71875 C 16.484375 -31.132812 17.664062 -26.15625 20.03125 -21.78125 C 22.40625 -17.40625 25.664062 -14.03125 29.8125 -11.65625 C 33.957031 -9.28125 38.632812 -8.09375 43.84375 -8.09375 Z M 43.84375 -8.09375 "/></g></g></g><g fill="#000000" fill-opacity="1"><g transform="translate(267.546187, 142.189076)"><g><path d="M 13.828125 -103.609375 L 23.734375 -103.609375 L 23.734375 0 L 13.828125 0 Z M 13.828125 -103.609375 "/></g></g></g><g clip-path="url(#74cb4a56de)"><g clip-path="url(#ca7a43662c)"><g clip-path="url(#79696be047)"><path fill="#000000" d="M 140.433594 100.15625 L 128.875 87.804688 L 164.148438 54.808594 L 175.703125 67.160156 Z M 140.433594 100.15625 " fill-opacity="1" fill-rule="nonzero"/></g></g></g></svg>