<svg xmlns="http://www.w3.org/2000/svg" xmlns:xlink="http://www.w3.org/1999/xlink" width="500" zoomAndPan="magnify" viewBox="0 0 375 374.999991" height="500" preserveAspectRatio="xMidYMid meet" version="1.0"><defs><g/><clipPath id="a6ce8ceaa3"><path d="M 281.949219 161.835938 L 355.449219 161.835938 L 355.449219 235.335938 L 281.949219 235.335938 Z M 281.949219 161.835938 " clip-rule="nonzero"/></clipPath><clipPath id="b25204e60f"><path d="M 134 156 L 171 156 L 171 191 L 134 191 Z M 134 156 " clip-rule="nonzero"/></clipPath><clipPath id="9892fe172e"><path d="M 142.089844 193.921875 L 130.941406 182.003906 L 164.972656 150.167969 L 176.121094 162.085938 Z M 142.089844 193.921875 " clip-rule="nonzero"/></clipPath><clipPath id="cf8a6ecd39"><path d="M 170.542969 156.128906 L 169.347656 168.421875 L 166.183594 165.035156 L 138.921875 190.535156 L 134.109375 185.390625 L 161.367188 159.886719 L 158.199219 156.503906 Z M 170.542969 156.128906 " clip-rule="nonzero"/></clipPath></defs><g clip-path="url(#a6ce8ceaa3)"><path fill="#000000" d="M 318.679688 161.835938 C 298.375 161.835938 281.949219 178.28125 281.949219 198.585938 C 281.949219 218.890625 298.375 235.335938 318.679688 235.335938 C 338.984375 235.335938 355.449219 218.890625 355.449219 198.585938 C 355.449219 178.28125 338.984375 161.835938 318.679688 161.835938 Z M 318.699219 227.984375 C 302.453125 227.984375 289.296875 214.828125 289.296875 198.585938 C 289.296875 182.339844 302.453125 169.183594 318.699219 169.183594 C 334.941406 169.183594 348.097656 182.339844 348.097656 198.585938 C 348.097656 214.828125 334.941406 227.984375 318.699219 227.984375 Z M 318.699219 227.984375 " fill-opacity="1" fill-rule="nonzero"/></g><path fill="#000000" d="M 320.535156 180.210938 L 315.023438 180.210938 L 315.023438 202.257812 L 334.300781 213.835938 L 337.074219 209.316406 L 320.535156 199.503906 Z M 320.535156 180.210938 " fill-opacity="1" fill-rule="nonzero"/><g fill="#000000" fill-opacity="1"><g transform="translate(19.4256, 234.473623)"><g><path d="M 72.875 -70.859375 L 41.359375 0 L 31.53125 0 L 0.140625 -70.859375 L 10.109375 -70.859375 L 36.640625 -10.515625 L 63.453125 -70.859375 Z M 72.875 -70.859375 "/></g></g></g><g fill="#000000" fill-opacity="1"><g transform="translate(92.436766, 234.473623)"><g><path d="M 39.609375 -35.5625 L 22.90625 -20.203125 L 22.90625 0 L 13.34375 0 L 13.34375 -99.96875 L 22.90625 -99.96875 L 22.90625 -32.203125 L 65.203125 -70.859375 L 77.0625 -70.859375 L 46.75 -41.890625 L 79.890625 0 L 68.171875 0 Z M 39.609375 -35.5625 "/></g></g></g><g fill="#000000" fill-opacity="1"><g transform="translate(173.395664, 234.473623)"><g><path d="M 78 -99.96875 L 78 0 L 68.84375 0 L 68.84375 -14.015625 C 65.96875 -9.253906 62.171875 -5.613281 57.453125 -3.09375 C 52.742188 -0.582031 47.425781 0.671875 41.5 0.671875 C 34.851562 0.671875 28.832031 -0.851562 23.4375 -3.90625 C 18.050781 -6.957031 13.832031 -11.222656 10.78125 -16.703125 C 7.726562 -22.179688 6.203125 -28.425781 6.203125 -35.4375 C 6.203125 -42.4375 7.726562 -48.675781 10.78125 -54.15625 C 13.832031 -59.632812 18.050781 -63.878906 23.4375 -66.890625 C 28.832031 -69.898438 34.851562 -71.40625 41.5 -71.40625 C 47.238281 -71.40625 52.421875 -70.210938 57.046875 -67.828125 C 61.671875 -65.453125 65.46875 -61.972656 68.4375 -57.390625 L 68.4375 -99.96875 Z M 42.296875 -7.8125 C 47.242188 -7.8125 51.710938 -8.957031 55.703125 -11.25 C 59.703125 -13.539062 62.847656 -16.796875 65.140625 -21.015625 C 67.429688 -25.234375 68.578125 -30.039062 68.578125 -35.4375 C 68.578125 -40.820312 67.429688 -45.625 65.140625 -49.84375 C 62.847656 -54.0625 59.703125 -57.316406 55.703125 -59.609375 C 51.710938 -61.898438 47.242188 -63.046875 42.296875 -63.046875 C 37.265625 -63.046875 32.75 -61.898438 28.75 -59.609375 C 24.757812 -57.316406 21.617188 -54.0625 19.328125 -49.84375 C 17.035156 -45.625 15.890625 -40.820312 15.890625 -35.4375 C 15.890625 -30.039062 17.035156 -25.234375 19.328125 -21.015625 C 21.617188 -16.796875 24.757812 -13.539062 28.75 -11.25 C 32.75 -8.957031 37.265625 -7.8125 42.296875 -7.8125 Z M 42.296875 -7.8125 "/></g></g></g><g fill="#000000" fill-opacity="1"><g transform="translate(264.726999, 234.473623)"><g><path d="M 13.34375 -99.96875 L 22.90625 -99.96875 L 22.90625 0 L 13.34375 0 Z M 13.34375 -99.96875 "/></g></g></g><g clip-path="url(#b25204e60f)"><g clip-path="url(#9892fe172e)"><g clip-path="url(#cf8a6ecd39)"><path fill="#000000" d="M 142.089844 193.921875 L 130.941406 182.003906 L 164.972656 150.167969 L 176.121094 162.085938 Z M 142.089844 193.921875 " fill-opacity="1" fill-rule="nonzero"/></g></g></g></svg>