<svg xmlns="http://www.w3.org/2000/svg" xmlns:xlink="http://www.w3.org/1999/xlink" zoomAndPan="magnify" preserveAspectRatio="xMidYMid meet" version="1.0" viewBox="5 142 88.22 95.48"><defs><clipPath id="ebdb35db67"><path d="M 42 142 L 92 142 L 92 237 L 42 237 Z M 42 142 " clip-rule="nonzero"/></clipPath><clipPath id="71436e97d6"><path d="M 40.164062 143.75 L 91.152344 142.625 L 93.203125 235.601562 L 42.214844 236.726562 Z M 40.164062 143.75 " clip-rule="nonzero"/></clipPath><clipPath id="34837b6e00"><path d="M 40.164062 143.75 L 91.152344 142.625 L 93.21875 236.351562 L 42.230469 237.476562 Z M 40.164062 143.75 " clip-rule="nonzero"/></clipPath><clipPath id="39a758937e"><path d="M 5 165 L 47.25 165 L 47.25 237 L 5 237 Z M 5 165 " clip-rule="nonzero"/></clipPath></defs><g clip-path="url(#ebdb35db67)"><g clip-path="url(#71436e97d6)"><g clip-path="url(#34837b6e00)"><path fill="#ffffff" d="M 77.984375 142.925781 L 59.335938 169.277344 L 71.378906 170.449219 L 69.539062 195.949219 L 57.75 184.683594 L 42 226.945312 L 46.648438 237.425781 L 61.433594 199.011719 L 76.167969 213.097656 L 79.5625 170.75 L 91.605469 171.925781 Z M 77.984375 142.925781 " fill-opacity="1" fill-rule="nonzero"/></g></g></g><g clip-path="url(#39a758937e)"><path fill="#ffffff" d="M 78.691406 165.378906 L 47.101562 236.371094 L 37.257812 236.371094 L 5.804688 165.378906 L 15.796875 165.378906 L 42.378906 225.84375 L 69.242188 165.378906 Z M 78.691406 165.378906 " fill-opacity="1" fill-rule="nonzero"/></g></svg>