<svg xmlns="http://www.w3.org/2000/svg" xmlns:xlink="http://www.w3.org/1999/xlink" width="500" zoomAndPan="magnify" viewBox="0 0 375 374.999991" height="500" preserveAspectRatio="xMidYMid meet" version="1.0"><defs><clipPath id="8f9740d967"><path d="M 0.761719 0 L 374.886719 0 L 374.886719 375 L 0.761719 375 Z M 0.761719 0 " clip-rule="nonzero"/></clipPath><clipPath id="6b116917cd"><path d="M 27.761719 0 L 347.886719 0 C 362.796875 0 374.886719 12.089844 374.886719 27 L 374.886719 348 C 374.886719 362.910156 362.796875 375 347.886719 375 L 27.761719 375 C 12.851562 375 0.761719 362.910156 0.761719 348 L 0.761719 27 C 0.761719 12.089844 12.851562 0 27.761719 0 Z M 27.761719 0 " clip-rule="nonzero"/></clipPath><clipPath id="1dfffe0a38"><path d="M 176 81 L 286 81 L 286 288 L 176 288 Z M 176 81 " clip-rule="nonzero"/></clipPath><clipPath id="80854774c6"><path d="M 172.671875 82.988281 L 284.789062 80.515625 L 289.304688 285.339844 L 177.191406 287.8125 Z M 172.671875 82.988281 " clip-rule="nonzero"/></clipPath><clipPath id="f5f5602aee"><path d="M 172.671875 82.988281 L 284.789062 80.515625 L 289.351562 287.496094 L 177.238281 289.96875 Z M 172.671875 82.988281 " clip-rule="nonzero"/></clipPath><clipPath id="794c5c4e45"><path d="M 97 130 L 187.949219 130 L 187.949219 287 L 97 287 Z M 97 130 " clip-rule="nonzero"/></clipPath></defs><g clip-path="url(#8f9740d967)"><g clip-path="url(#6b116917cd)"><path fill="#540b02" d="M 0.761719 0 L 374.886719 0 L 374.886719 375.585938 L 0.761719 375.585938 Z M 0.761719 0 " fill-opacity="1" fill-rule="nonzero"/></g></g><g clip-path="url(#1dfffe0a38)"><g clip-path="url(#80854774c6)"><g clip-path="url(#f5f5602aee)"><path fill="#ffffff" d="M 255.769531 81.1875 L 214.796875 139.082031 L 241.257812 141.660156 L 237.210938 197.6875 L 211.316406 172.929688 L 176.703125 265.78125 L 186.921875 288.808594 L 219.402344 204.410156 L 251.777344 235.355469 L 259.230469 142.320312 L 285.695312 144.90625 Z M 255.769531 81.1875 " fill-opacity="1" fill-rule="nonzero"/></g></g></g><g clip-path="url(#794c5c4e45)"><path fill="#ffffff" d="M 257.316406 130.503906 L 187.917969 286.484375 L 166.289062 286.484375 L 97.1875 130.503906 L 119.136719 130.503906 L 177.539062 263.351562 L 236.558594 130.503906 Z M 257.316406 130.503906 " fill-opacity="1" fill-rule="nonzero"/></g></svg>