<svg xmlns="http://www.w3.org/2000/svg" xmlns:xlink="http://www.w3.org/1999/xlink" zoomAndPan="magnify" preserveAspectRatio="xMidYMid meet" version="1.0" viewBox="6 132.46 354.83 105.06"><defs><g/><clipPath id="61b62559c8"><path d="M 305.289062 183.75 L 341.289062 183.75 L 341.289062 219.75 L 305.289062 219.75 Z M 305.289062 183.75 " clip-rule="nonzero"/></clipPath><clipPath id="e8e13d9571"><path d="M 42 142 L 92 142 L 92 237 L 42 237 Z M 42 142 " clip-rule="nonzero"/></clipPath><clipPath id="66947ad28f"><path d="M 40.164062 143.75 L 91.152344 142.625 L 93.203125 235.601562 L 42.214844 236.726562 Z M 40.164062 143.75 " clip-rule="nonzero"/></clipPath><clipPath id="0a07d447e2"><path d="M 40.164062 143.75 L 91.152344 142.625 L 93.21875 236.351562 L 42.230469 237.476562 Z M 40.164062 143.75 " clip-rule="nonzero"/></clipPath><clipPath id="505a4e00d0"><path d="M 6 165 L 47.25 165 L 47.25 237 L 6 237 Z M 6 165 " clip-rule="nonzero"/></clipPath></defs><g fill="#000000" fill-opacity="1"><g transform="translate(18.36279, 236.818492)"><g/></g></g><g fill="#000000" fill-opacity="1"><g transform="translate(55.210723, 236.818492)"><g/></g></g><g fill="#000000" fill-opacity="1"><g transform="translate(92.05923, 236.818492)"><g><path d="M 41.34375 -37.125 L 23.90625 -21.09375 L 23.90625 0 L 13.921875 0 L 13.921875 -104.359375 L 23.90625 -104.359375 L 23.90625 -33.609375 L 68.0625 -73.984375 L 80.453125 -73.984375 L 48.796875 -43.734375 L 83.40625 0 L 71.171875 0 Z M 41.34375 -37.125 "/></g></g></g><g fill="#000000" fill-opacity="1"><g transform="translate(176.584446, 236.818492)"><g><path d="M 81.4375 -104.359375 L 81.4375 0 L 71.875 0 L 71.875 -14.625 C 68.863281 -9.65625 64.894531 -5.859375 59.96875 -3.234375 C 55.050781 -0.609375 49.5 0.703125 43.3125 0.703125 C 36.375 0.703125 30.09375 -0.890625 24.46875 -4.078125 C 18.84375 -7.265625 14.4375 -11.71875 11.25 -17.4375 C 8.0625 -23.15625 6.46875 -29.671875 6.46875 -36.984375 C 6.46875 -44.296875 8.0625 -50.8125 11.25 -56.53125 C 14.4375 -62.25 18.84375 -66.679688 24.46875 -69.828125 C 30.09375 -72.972656 36.375 -74.546875 43.3125 -74.546875 C 49.3125 -74.546875 54.722656 -73.300781 59.546875 -70.8125 C 64.378906 -68.320312 68.347656 -64.6875 71.453125 -59.90625 L 71.453125 -104.359375 Z M 44.15625 -8.15625 C 49.3125 -8.15625 53.972656 -9.347656 58.140625 -11.734375 C 62.316406 -14.128906 65.601562 -17.53125 68 -21.9375 C 70.394531 -26.34375 71.59375 -31.359375 71.59375 -36.984375 C 71.59375 -42.609375 70.394531 -47.625 68 -52.03125 C 65.601562 -56.4375 62.316406 -59.832031 58.140625 -62.21875 C 53.972656 -64.613281 49.3125 -65.8125 44.15625 -65.8125 C 38.90625 -65.8125 34.191406 -64.613281 30.015625 -62.21875 C 25.847656 -59.832031 22.566406 -56.4375 20.171875 -52.03125 C 17.785156 -47.625 16.59375 -42.609375 16.59375 -36.984375 C 16.59375 -31.359375 17.785156 -26.34375 20.171875 -21.9375 C 22.566406 -17.53125 25.847656 -14.128906 30.015625 -11.734375 C 34.191406 -9.347656 38.90625 -8.15625 44.15625 -8.15625 Z M 44.15625 -8.15625 "/></g></g></g><g fill="#000000" fill-opacity="1"><g transform="translate(271.939011, 236.818492)"><g><path d="M 52.03125 -74.546875 C 58.96875 -74.546875 65.25 -72.972656 70.875 -69.828125 C 76.507812 -66.679688 80.921875 -62.25 84.109375 -56.53125 C 87.296875 -50.8125 88.890625 -44.296875 88.890625 -36.984375 C 88.890625 -29.671875 87.296875 -23.15625 84.109375 -17.4375 C 80.921875 -11.71875 76.507812 -7.265625 70.875 -4.078125 C 65.25 -0.890625 58.96875 0.703125 52.03125 0.703125 C 45.84375 0.703125 40.285156 -0.609375 35.359375 -3.234375 C 30.441406 -5.859375 26.484375 -9.65625 23.484375 -14.625 L 23.484375 0 L 13.921875 0 L 13.921875 -104.359375 L 23.90625 -104.359375 L 23.90625 -59.90625 C 27 -64.6875 30.957031 -68.320312 35.78125 -70.8125 C 40.613281 -73.300781 46.03125 -74.546875 52.03125 -74.546875 Z M 51.328125 -8.15625 C 56.484375 -8.15625 61.171875 -9.347656 65.390625 -11.734375 C 69.617188 -14.128906 72.925781 -17.53125 75.3125 -21.9375 C 77.707031 -26.34375 78.90625 -31.359375 78.90625 -36.984375 C 78.90625 -42.609375 77.707031 -47.625 75.3125 -52.03125 C 72.925781 -56.4375 69.617188 -59.832031 65.390625 -62.21875 C 61.171875 -64.613281 56.484375 -65.8125 51.328125 -65.8125 C 46.078125 -65.8125 41.363281 -64.613281 37.1875 -62.21875 C 33.019531 -59.832031 29.738281 -56.4375 27.34375 -52.03125 C 24.957031 -47.625 23.765625 -42.609375 23.765625 -36.984375 C 23.765625 -31.359375 24.957031 -26.34375 27.34375 -21.9375 C 29.738281 -17.53125 33.019531 -14.128906 37.1875 -11.734375 C 41.363281 -9.347656 46.078125 -8.15625 51.328125 -8.15625 Z M 51.328125 -8.15625 "/></g></g></g><g clip-path="url(#61b62559c8)"><path fill="#000000" d="M 323.140625 167.878906 C 304.496094 167.878906 289.410156 182.984375 289.410156 201.628906 C 289.410156 220.277344 304.496094 235.378906 323.140625 235.378906 C 341.789062 235.378906 356.910156 220.277344 356.910156 201.628906 C 356.910156 182.984375 341.789062 167.878906 323.140625 167.878906 Z M 323.160156 228.628906 C 308.242188 228.628906 296.160156 216.546875 296.160156 201.628906 C 296.160156 186.710938 308.242188 174.628906 323.160156 174.628906 C 338.078125 174.628906 350.160156 186.710938 350.160156 201.628906 C 350.160156 216.546875 338.078125 228.628906 323.160156 228.628906 Z M 323.160156 228.628906 " fill-opacity="1" fill-rule="nonzero"/></g><path fill="#000000" d="M 324.847656 184.753906 L 319.785156 184.753906 L 319.785156 205.003906 L 337.484375 215.636719 L 340.035156 211.484375 L 324.847656 202.472656 Z M 324.847656 184.753906 " fill-opacity="1" fill-rule="nonzero"/><g clip-path="url(#e8e13d9571)"><g clip-path="url(#66947ad28f)"><g clip-path="url(#0a07d447e2)"><path fill="#000000" d="M 77.984375 142.925781 L 59.335938 169.277344 L 71.378906 170.449219 L 69.539062 195.949219 L 57.75 184.683594 L 42 226.945312 L 46.648438 237.425781 L 61.433594 199.011719 L 76.167969 213.097656 L 79.5625 170.75 L 91.605469 171.925781 Z M 77.984375 142.925781 " fill-opacity="1" fill-rule="nonzero"/></g></g></g><g clip-path="url(#505a4e00d0)"><path fill="#000000" d="M 79.03125 165.484375 L 47.394531 236.582031 L 37.535156 236.582031 L 6.039062 165.484375 L 16.042969 165.484375 L 42.664062 226.035156 L 69.566406 165.484375 Z M 79.03125 165.484375 " fill-opacity="1" fill-rule="nonzero"/></g></svg>