<svg xmlns="http://www.w3.org/2000/svg" xmlns:xlink="http://www.w3.org/1999/xlink" width="500" zoomAndPan="magnify" viewBox="0 0 375 374.999991" height="500" preserveAspectRatio="xMidYMid meet" version="1.0"><defs><clipPath id="f20392c06b"><path d="M 0.761719 0 L 374.886719 0 L 374.886719 375 L 0.761719 375 Z M 0.761719 0 " clip-rule="nonzero"/></clipPath><clipPath id="14f49be33d"><path d="M 27.761719 0 L 347.886719 0 C 362.796875 0 374.886719 12.089844 374.886719 27 L 374.886719 348 C 374.886719 362.910156 362.796875 375 347.886719 375 L 27.761719 375 C 12.851562 375 0.761719 362.910156 0.761719 348 L 0.761719 27 C 0.761719 12.089844 12.851562 0 27.761719 0 Z M 27.761719 0 " clip-rule="nonzero"/></clipPath><clipPath id="5098542858"><path d="M 176 81 L 286 81 L 286 287 L 176 287 Z M 176 81 " clip-rule="nonzero"/></clipPath><clipPath id="924653477d"><path d="M 172.671875 82.988281 L 284.394531 80.523438 L 288.894531 284.472656 L 177.171875 286.9375 Z M 172.671875 82.988281 " clip-rule="nonzero"/></clipPath><clipPath id="b1b4d25ec8"><path d="M 172.671875 82.988281 L 284.394531 80.523438 L 288.941406 286.722656 L 177.21875 289.1875 Z M 172.671875 82.988281 " clip-rule="nonzero"/></clipPath><clipPath id="c1c869be43"><path d="M 97 130 L 187.933594 130 L 187.933594 287 L 97 287 Z M 97 130 " clip-rule="nonzero"/></clipPath></defs><g clip-path="url(#f20392c06b)"><g clip-path="url(#14f49be33d)"><path fill="#df8b82" d="M 0.761719 0 L 374.886719 0 L 374.886719 375.585938 L 0.761719 375.585938 Z M 0.761719 0 " fill-opacity="1" fill-rule="nonzero"/></g></g><g clip-path="url(#5098542858)"><g clip-path="url(#924653477d)"><g clip-path="url(#b1b4d25ec8)"><path fill="#ffffff" d="M 255.777344 81.179688 L 214.800781 139.078125 L 241.261719 141.65625 L 237.214844 197.6875 L 211.316406 172.925781 L 176.703125 265.785156 L 186.925781 288.816406 L 219.40625 204.410156 L 251.78125 235.359375 L 259.234375 142.316406 L 285.703125 144.902344 Z M 255.777344 81.179688 " fill-opacity="1" fill-rule="nonzero"/></g></g></g><g clip-path="url(#c1c869be43)"><path fill="#ffffff" d="M 257.328125 130.507812 L 187.925781 286.488281 L 166.296875 286.488281 L 97.195312 130.507812 L 119.140625 130.507812 L 177.546875 263.355469 L 236.566406 130.507812 Z M 257.328125 130.507812 " fill-opacity="1" fill-rule="nonzero"/></g></svg>